{
	"asset":{
		"generator":"Khronos glTF Blender I/O v4.2.83",
		"version":"2.0"
	},
	"scene":0,
	"scenes":[
		{
			"extras":{
				"interface":{
					"level":2,
					"shading":0,
					"layout":1,
					"main_location":0,
					"operation_location":1,
					"tools_location":2
				},
				"scatter_properties":{}
			},
			"name":"Scene",
			"nodes":[
				0
			]
		}
	],
	"nodes":[
		{
			"mesh":0,
			"name":"Sliding-door-guide",
			"rotation":[
				0.7071068286895752,
				0,
				0,
				0.7071068286895752
			],
			"scale":[
				0.024000000208616257,
				0.0005000000237487257,
				0.024000000208616257
			],
			"translation":[
				0.030017578974366188,
				0.05433975160121918,
				0.008868837729096413
			]
		}
	],
	"animations":[
		{
			"channels":[
				{
					"sampler":0,
					"target":{
						"node":0,
						"path":"translation"
					}
				},
				{
					"sampler":1,
					"target":{
						"node":0,
						"path":"rotation"
					}
				}
			],
			"name":"Sliding-door-guideAction",
			"samplers":[
				{
					"input":4,
					"interpolation":"STEP",
					"output":5
				},
				{
					"input":6,
					"interpolation":"LINEAR",
					"output":7
				}
			]
		}
	],
	"materials":[
		{
			"doubleSided":true,
			"name":"Material",
			"pbrMetallicRoughness":{
				"baseColorFactor":[
					0.3279110789299011,
					0.3279110789299011,
					0.3279110789299011,
					1
				],
				"roughnessFactor":0.20000000298023224
			}
		}
	],
	"meshes":[
		{
			"name":"Cube.004",
			"primitives":[
				{
					"attributes":{
						"POSITION":0,
						"NORMAL":1,
						"TEXCOORD_0":2
					},
					"indices":3,
					"material":0
				}
			]
		}
	],
	"accessors":[
		{
			"bufferView":0,
			"componentType":5126,
			"count":1658,
			"max":[
				1.0409340858459473,
				1,
				0.9999997615814209
			],
			"min":[
				-3.5423989295959473,
				-34.7376708984375,
				-0.9999997615814209
			],
			"type":"VEC3"
		},
		{
			"bufferView":1,
			"componentType":5126,
			"count":1658,
			"type":"VEC3"
		},
		{
			"bufferView":2,
			"componentType":5126,
			"count":1658,
			"type":"VEC2"
		},
		{
			"bufferView":3,
			"componentType":5123,
			"count":3354,
			"type":"SCALAR"
		},
		{
			"bufferView":4,
			"componentType":5126,
			"count":2,
			"max":[
				3.3333333333333335
			],
			"min":[
				0.03333333333333333
			],
			"type":"SCALAR"
		},
		{
			"bufferView":5,
			"componentType":5126,
			"count":2,
			"type":"VEC3"
		},
		{
			"bufferView":6,
			"componentType":5126,
			"count":100,
			"max":[
				3.3333333333333335
			],
			"min":[
				0.03333333333333333
			],
			"type":"SCALAR"
		},
		{
			"bufferView":7,
			"componentType":5126,
			"count":100,
			"type":"VEC4"
		}
	],
	"bufferViews":[
		{
			"buffer":0,
			"byteLength":19896,
			"byteOffset":0,
			"target":34962
		},
		{
			"buffer":0,
			"byteLength":19896,
			"byteOffset":19896,
			"target":34962
		},
		{
			"buffer":0,
			"byteLength":13264,
			"byteOffset":39792,
			"target":34962
		},
		{
			"buffer":0,
			"byteLength":6708,
			"byteOffset":53056,
			"target":34963
		},
		{
			"buffer":0,
			"byteLength":8,
			"byteOffset":59764
		},
		{
			"buffer":0,
			"byteLength":24,
			"byteOffset":59772
		},
		{
			"buffer":0,
			"byteLength":400,
			"byteOffset":59796
		},
		{
			"buffer":0,
			"byteLength":1600,
			"byteOffset":60196
		}
	],
	"buffers":[
		{
			"byteLength":61796,
			"uri":"Sliding_door_guide.bin"
		}
	]
}
